<svg width="163" height="65" viewBox="0 0 163 65" fill="none" xmlns="http://www.w3.org/2000/svg">
<path d="M19.026 26.5942C19.4043 27.6606 19.7827 28.7441 20.1611 29.8449C20.5739 30.9456 20.9523 32.0464 21.2963 33.1472C21.6059 34.0071 21.9154 34.9359 22.225 35.9334C22.569 36.8966 22.8958 37.8254 23.2054 38.7197C23.515 39.5797 23.7558 40.2849 23.9278 40.8352C23.9966 41.0416 24.0654 41.2308 24.1342 41.4028C24.2029 41.5748 24.2545 41.7296 24.2889 41.8672C24.3233 41.9704 24.3577 42.0736 24.3921 42.1768C24.4265 42.28 24.4609 42.366 24.4953 42.4348C24.5641 42.5724 24.6157 42.6928 24.6501 42.7959C24.6845 42.8991 24.7017 42.9679 24.7017 43.0023C24.7361 43.0367 24.7705 43.0367 24.8049 43.0023C24.8393 42.9679 24.8737 42.8991 24.9081 42.7959C24.9425 42.6928 24.9941 42.5552 25.0629 42.3832C25.0973 42.3144 25.1317 42.2284 25.1661 42.1252C25.2005 41.9876 25.2349 41.85 25.2693 41.7124C25.3381 41.5404 25.3897 41.3684 25.4241 41.1964C25.4929 41.0244 25.5445 40.8524 25.5789 40.6804C25.7509 40.0957 25.8885 39.5969 25.9917 39.1841C26.1293 38.7369 26.2669 38.2725 26.4045 37.791C26.542 37.275 26.6968 36.673 26.8688 35.985C26.9376 35.7442 27.0064 35.4863 27.0752 35.2111C27.1784 34.9359 27.2816 34.6263 27.3848 34.2823C27.488 33.9039 27.6084 33.4567 27.746 32.9408C27.8836 32.3904 28.0556 31.7368 28.262 30.98C28.5372 29.9137 28.8812 28.9677 29.2939 28.1422C29.7067 27.3166 30.1539 26.6802 30.6355 26.233C31.1515 25.7515 31.6674 25.5279 32.1834 25.5623C32.6994 25.5623 33.1982 25.8547 33.6797 26.4394C34.1613 27.0242 34.5913 27.953 34.9697 29.2257C35.1761 29.8793 35.3481 30.4297 35.4857 30.8768C35.6233 31.2896 35.7437 31.668 35.8469 32.012C35.9501 32.3216 36.036 32.614 36.1048 32.8892C36.208 33.13 36.3112 33.4051 36.4144 33.7147C36.724 34.6435 37.0164 35.6238 37.2916 36.6558C37.5668 37.6534 37.8248 38.5993 38.0656 39.4937C38.3064 40.3536 38.4955 41.076 38.6331 41.6608C38.7019 41.9016 38.7535 42.108 38.7879 42.28C38.8567 42.452 38.9083 42.6068 38.9427 42.7443C38.9771 42.8819 38.9943 43.0023 38.9943 43.1055C39.0287 43.1743 39.0631 43.2603 39.0975 43.3635C39.1319 43.5011 39.1491 43.6215 39.1491 43.7247C39.1835 43.8279 39.2007 43.8967 39.2007 43.9311C39.2007 43.9655 39.1835 43.9827 39.1491 43.9827C39.1491 43.9483 39.1491 43.9139 39.1491 43.8795C39.1491 43.8451 39.1491 43.7763 39.1491 43.6731C39.1835 43.5699 39.2179 43.4667 39.2523 43.3635C39.2867 43.2947 39.3211 43.2087 39.3555 43.1055C39.3899 43.0023 39.4243 42.8991 39.4587 42.7959C39.4931 42.6584 39.5275 42.5208 39.5619 42.3832C39.6307 42.2112 39.6995 42.022 39.7683 41.8156C39.8371 41.6092 39.9231 41.3684 40.0263 41.0932C40.3359 40.1989 40.6283 39.3389 40.9034 38.5133C41.213 37.6534 41.5054 36.7934 41.7806 35.9334C42.0902 35.0735 42.3998 34.1447 42.7094 33.1472C43.019 32.2528 43.3629 31.2208 43.7413 30.0513C44.1197 28.8473 44.4809 27.7122 44.8249 26.6458C45.1001 25.8203 45.53 25.2699 46.1148 24.9947C46.6996 24.7195 47.2844 24.6851 47.8691 24.8915C48.4539 25.0979 48.9011 25.4763 49.2107 26.0267C49.5203 26.577 49.5375 27.265 49.2623 28.0906C48.9183 29.1913 48.5227 30.3437 48.0755 31.5476C47.6628 32.7516 47.3188 33.8007 47.0436 34.6951C46.734 35.6926 46.4244 36.6902 46.1148 37.6878C45.8052 38.6509 45.4957 39.6313 45.1861 40.6288C44.9109 41.592 44.6013 42.5552 44.2573 43.5183C44.1197 43.8623 43.9993 44.1719 43.8961 44.4471C43.8273 44.7223 43.7413 44.9975 43.6381 45.2726C43.5693 45.5478 43.4661 45.8746 43.3285 46.253C43.2253 46.597 43.0706 47.027 42.8642 47.5429C42.4858 48.5405 42.073 49.3833 41.6258 50.0712C41.213 50.7248 40.7831 51.2064 40.3359 51.516C39.8887 51.86 39.4415 52.0148 38.9943 51.9804C38.5471 51.946 38.1 51.7396 37.6528 51.3612C37.24 51.0172 36.8444 50.5012 36.466 49.8132C36.0876 49.0909 35.7437 48.2137 35.4341 47.1818C35.2621 46.5626 35.1073 46.0638 34.9697 45.6854C34.8665 45.307 34.7633 44.9631 34.6601 44.6535C34.5913 44.3439 34.4881 43.9655 34.3505 43.5183C34.1097 42.7271 33.8173 41.6608 33.4734 40.3192C33.1294 38.9777 32.7338 37.4986 32.2866 35.8818C31.8394 34.2651 31.3406 32.6484 30.7903 31.0316C30.6183 30.5157 30.3603 30.3093 30.0163 30.4125C29.7067 30.5157 29.3799 30.7221 29.0359 31.0316C28.7264 31.3412 28.4856 31.5476 28.3136 31.6508C28.1416 31.754 28.1244 31.5304 28.262 30.98C28.5372 29.9137 28.8812 28.9677 29.2939 28.1422C29.7067 27.3166 30.1539 26.6802 30.6355 26.233C31.1515 25.7515 31.6674 25.5279 32.1834 25.5623C32.6994 25.5623 33.1982 25.8547 33.6797 26.4394C34.1613 27.0242 34.5913 27.953 34.9697 29.2257C35.2105 29.9481 35.2621 30.4469 35.1245 30.7221C35.0213 30.9628 34.8149 31.1176 34.5053 31.1864C34.1957 31.2208 33.8861 31.324 33.5766 31.496C33.267 31.6336 33.0262 31.9776 32.8542 32.528C32.4414 34.0071 32.0286 35.4175 31.6158 36.759C31.2031 38.1005 30.8247 39.3389 30.4807 40.474C30.1367 41.5748 29.8271 42.5724 29.5519 43.4667C29.4487 43.8451 29.3455 44.1891 29.2423 44.4987C29.1391 44.7739 29.0187 45.1178 28.8812 45.5306C28.7436 45.909 28.5544 46.4422 28.3136 47.1302C27.9008 48.4373 27.4536 49.4865 26.972 50.2776C26.4905 51.0344 25.9917 51.5332 25.4757 51.774C24.9941 52.0492 24.4953 52.0492 23.9794 51.774C23.4978 51.5332 23.0162 51.0344 22.5346 50.2776C22.053 49.5209 21.5887 48.5405 21.1415 47.3366C20.9007 46.6142 20.6943 46.0466 20.5223 45.6338C20.3847 45.221 20.2643 44.8599 20.1611 44.5503C20.0579 44.2063 19.9203 43.8107 19.7483 43.3635C19.2324 41.9188 18.7336 40.4396 18.252 38.9261C17.8048 37.3782 17.3576 35.9678 16.9105 34.6951C16.5665 33.5943 16.2053 32.4936 15.8269 31.3928C15.4485 30.2921 15.0701 29.2085 14.6917 28.1422C14.3822 27.3166 14.365 26.6286 14.6402 26.0783C14.9497 25.4935 15.3797 25.0979 15.9301 24.8915C16.5149 24.6851 17.0996 24.7195 17.6844 24.9947C18.2692 25.2355 18.7164 25.7687 19.026 26.5942ZM112.262 30.7737C111.643 30.4985 111.024 30.2577 110.405 30.0513C109.786 29.8449 109.167 29.6901 108.547 29.5869C107.963 29.4837 107.378 29.4321 106.793 29.4321C106.002 29.4321 105.262 29.5353 104.574 29.7417C103.886 29.9481 103.319 30.2749 102.872 30.7221C102.459 31.1348 102.252 31.6852 102.252 32.3732C102.252 32.8204 102.442 33.2331 102.82 33.6115C103.198 33.9555 103.68 34.2651 104.265 34.5403C104.85 34.8155 105.452 35.0735 106.071 35.3143C106.69 35.5207 107.24 35.6926 107.722 35.8302C109.373 36.3806 110.869 36.9998 112.211 37.6878C113.587 38.3413 114.67 39.1841 115.461 40.2161C116.287 41.248 116.7 42.5724 116.7 44.1891C116.7 45.6682 116.304 46.9754 115.513 48.1105C114.722 49.2113 113.638 50.0712 112.262 50.6904C110.921 51.2752 109.356 51.5676 107.567 51.5676C106.191 51.5676 104.746 51.3612 103.233 50.9484C101.719 50.5356 100.223 49.9336 98.7438 49.1425C97.9526 48.7297 97.4711 48.2137 97.2991 47.5945C97.1615 46.9754 97.2303 46.3906 97.5055 45.8402C97.815 45.2898 98.2622 44.9115 98.847 44.7051C99.4662 44.4987 100.154 44.6019 100.911 45.0147C101.668 45.4274 102.424 45.7714 103.181 46.0466C103.938 46.3218 104.678 46.5454 105.4 46.7174C106.157 46.855 106.879 46.9238 107.567 46.9238C108.358 46.9238 109.081 46.8378 109.734 46.6658C110.422 46.4594 110.972 46.167 111.385 45.7886C111.832 45.3758 112.056 44.8427 112.056 44.1891C112.056 43.4667 111.729 42.8647 111.076 42.3832C110.422 41.8672 109.631 41.4544 108.702 41.1448C107.808 40.8008 106.999 40.5084 106.277 40.2677C104.66 39.7173 103.198 39.1325 101.891 38.5133C100.584 37.8598 99.535 37.0686 98.7438 36.1398C97.987 35.1767 97.6086 33.9211 97.6086 32.3732C97.6086 30.8596 98.0042 29.5353 98.7954 28.4002C99.5866 27.265 100.67 26.3878 102.046 25.7687C103.422 25.1151 105.004 24.7883 106.793 24.7883C107.963 24.7883 109.184 24.9431 110.457 25.2527C111.729 25.5279 113.019 25.9923 114.326 26.6458C115.083 27.0242 115.547 27.523 115.719 28.1422C115.926 28.7269 115.891 29.2945 115.616 29.8449C115.375 30.3953 114.946 30.7909 114.326 31.0316C113.742 31.2724 113.054 31.1864 112.262 30.7737ZM122.423 48.9361C122.423 48.2137 122.423 47.4397 122.423 46.6142C122.423 45.7886 122.423 44.9631 122.423 44.1375C122.423 43.3119 122.423 42.538 122.423 41.8156C122.423 39.0637 122.423 36.0538 122.423 32.786C122.423 29.5181 122.423 25.8375 122.423 21.744C122.423 20.8153 122.423 19.7317 122.423 18.4934C122.423 17.255 122.423 16.1371 122.423 15.1395C122.423 14.2795 122.646 13.626 123.094 13.1788C123.575 12.7316 124.125 12.508 124.745 12.508C125.364 12.508 125.897 12.7316 126.344 13.1788C126.826 13.626 127.067 14.2795 127.067 15.1395C127.067 15.9651 127.067 16.739 127.067 17.4614C127.067 18.1494 127.067 18.8546 127.067 19.5769C127.067 20.2649 127.067 20.9873 127.067 21.744C127.067 23.5672 127.067 25.5107 127.067 27.5746C127.067 29.6385 127.067 31.8572 127.067 34.2307C127.067 36.5698 127.067 39.0981 127.067 41.8156C127.067 42.6756 127.067 43.4839 127.067 44.2407C127.067 44.9975 127.067 45.7542 127.067 46.511C127.067 47.2678 127.067 48.0761 127.067 48.9361C127.067 49.7961 126.826 50.4496 126.344 50.8968C125.897 51.344 125.364 51.5676 124.745 51.5676C124.125 51.5676 123.575 51.344 123.094 50.8968C122.646 50.4496 122.423 49.7961 122.423 48.9361Z" fill="#7B4CDF"/>
<path d="M54.3094 50.7217C52.5239 48.9362 52.5239 46.0414 54.3094 44.256C56.0948 42.4705 58.9896 42.4705 60.7751 44.256C62.5606 46.0414 62.5606 48.9362 60.7751 50.7217C58.9896 52.5072 56.0948 52.5072 54.3094 50.7217Z" fill="#34394A"/>
<path d="M55.1473 49.8838C53.8246 48.5611 53.8246 46.4166 55.1473 45.0939C56.47 43.7712 58.6145 43.7712 59.9372 45.0939C61.2599 46.4166 61.2599 48.5611 59.9372 49.8838C58.6145 51.2065 56.47 51.2065 55.1473 49.8838Z" fill="#A0E5CA"/>
<path d="M57.5417 49.4095C56.4809 49.4095 55.621 48.5496 55.621 47.4888C55.621 46.428 56.4809 45.5681 57.5417 45.5681C58.6025 45.5681 59.4624 46.428 59.4624 47.4888C59.4624 48.5496 58.6025 49.4095 57.5417 49.4095Z" fill="white"/>
<path d="M52.5323 45.8179C53.5882 41.9747 57.9523 42.342 57.9523 42.342L60.7867 42.3398L62.957 45.8179L63.6978 48.1625H60.7867L59.5011 45.8179H52.5323Z" fill="#5B61C7"/>
<path d="M84.661 30.6188H92.599V38.6458H84.661V30.6188Z" fill="#F4DA8B"/>
<path d="M84.0396 30.6188H93.2204V32.4583H84.0396V30.6188Z" fill="#F4DA8B"/>
<path d="M84.661 32.4583H92.599V32.9604H84.661V32.4583Z" fill="#E6C46C"/>
<path d="M91.2562 30.6188H91.7891V38.6458H91.2562V30.6188Z" fill="#9B77E7"/>
<path d="M85.476 30.6188H86.0089V38.6458H85.476V30.6188Z" fill="#9B77E7"/>
<path d="M82.4022 38.6458H93.5718" stroke="#9B77E7" stroke-width="0.3549" stroke-miterlimit="10"/>
<path d="M88.9615 38.6458L84.5189 43.2987" stroke="#9B77E7" stroke-width="0.3549" stroke-miterlimit="10"/>
<path d="M63.4622 31.008L63.8526 28.2692C63.8752 28.1108 64.0022 27.9902 64.1616 27.9759L64.9248 27.9076L64.906 27.6971L64.1428 27.7654C63.8852 27.7884 63.6797 27.9833 63.6432 28.2394L63.2528 30.9782L63.4622 31.008Z" fill="#34394A"/>
<path d="M65.2814 26.3644V28.8775C65.2814 28.8775 64.7486 28.7954 64.7486 27.4813C64.7486 26.1672 65.2814 26.3644 65.2814 26.3644Z" fill="#5B61C7"/>
<path d="M83.5442 39.4756C83.5442 39.4756 83.5707 39.4493 83.6139 39.3991C84.8639 37.945 83.7923 36.3221 81.8747 36.3221H73.4468C71.8352 36.3221 70.6916 37.347 71.355 38.8157C71.4522 39.0308 71.5824 39.2514 71.7524 39.4755H83.5442V39.4756Z" fill="#E97083"/>
<path d="M73.9837 46.3353H66.0815L62.8846 41.5704L61.8852 43.461L65.015 48.3919L71.4588 49.0257L73.9837 46.3353Z" fill="#5B61C7"/>
<path d="M57.9524 42.342C57.9524 42.342 58.319 40.347 60.2234 38.0242C61.5003 36.4668 62.5512 34.9339 63.3779 34.0905H62.529V30.6188H63.8951C64.2484 30.6188 64.5746 30.813 64.7393 31.1255C65.1642 31.9316 65.2946 32.8605 65.1084 33.7523L62.8416 42.6938C62.7655 43.0582 62.8238 43.4378 63.0058 43.7626L64.752 46.8782C65.0544 47.4177 65.6245 47.7517 66.2429 47.7517H70.7545C71.614 47.7517 72.7504 47.1134 72.8602 46.2609L73.1231 44.2197C73.2807 42.9958 72.5266 41.76 71.7598 40.7931L71.7525 40.7839V39.4756H83.5442L86.3571 42.6726L77.0507 46.2502L74.94 48.5856C74.25 49.4452 73.2295 49.9937 72.1281 50.0378C72.0776 50.0398 72.0274 50.0408 71.9776 50.0408H65.357C64.7294 50.0408 64.153 49.6945 63.8583 49.1404L61.227 44.5003C60.9426 43.9655 60.4801 43.5469 59.9197 43.3171L57.9524 42.342Z" fill="#9B77E7"/>
<path d="M62.529 34.0852V30.6188C62.0375 30.6188 61.6391 31.0172 61.6391 31.5087V33.1952C61.6391 33.6868 62.0375 34.0852 62.529 34.0852Z" fill="#F4DA8B"/>
<path d="M64.3887 31.6863L65.1045 29.1844C65.1945 28.8624 65.4906 28.6374 65.8249 28.6374H66.4806V28.4418H65.8249C65.4034 28.4418 65.0293 28.7254 64.916 29.1318L64.2002 31.6337L64.3887 31.6863Z" fill="#34394A"/>
<path d="M66.2216 28.4373C66.2216 29.2879 66.4529 29.9775 66.7383 29.9775C67.0237 29.9775 67.255 29.2879 67.255 28.4373C67.255 27.5867 67.0237 26.8971 66.7383 26.8971C66.4529 26.8971 66.2216 27.5866 66.2216 28.4373Z" fill="#9B77E7"/>
<path d="M51 52.0608H93.7805" stroke="#34394A" stroke-width="0.09477" stroke-miterlimit="10"/>
<path d="M78.0424 48.5172C77.4735 46.0571 79.0066 43.6016 81.4668 43.0327C83.9269 42.4638 86.3825 43.997 86.9514 46.4571C87.5202 48.9173 85.9871 51.3728 83.5269 51.9417C81.0668 52.5106 78.6112 50.9774 78.0424 48.5172Z" fill="#34394A"/>
<path d="M79.1983 48.2576C78.7746 46.4356 79.9081 44.6152 81.7301 44.1915C83.552 43.7678 85.3725 44.9013 85.7962 46.7232C86.2199 48.5452 85.0864 50.3657 83.2644 50.7893C81.4424 51.213 79.622 50.0795 79.1983 48.2576Z" fill="#A0E5CA"/>
<path d="M82.497 49.4095C81.4362 49.4095 80.5763 48.5496 80.5763 47.4888C80.5763 46.428 81.4362 45.5681 82.497 45.5681C83.5578 45.5681 84.4177 46.428 84.4177 47.4888C84.4177 48.5496 83.5578 49.4095 82.497 49.4095Z" fill="white"/>
<path d="M88.6932 46.8621C89.0263 46.8621 89.2621 46.5291 89.1672 46.1978C88.7632 44.7877 87.069 41.3747 83.9693 40.4838C79.312 39.1453 76.8761 41.3185 76.3985 42.2946C75.9594 43.1919 75.1577 45.297 76.5598 46.8621H88.6932Z" fill="#5B61C7"/>
<mask id="mask0_12_622" style="mask-type:luminance" maskUnits="userSpaceOnUse" x="75" y="40" width="15" height="7">
<path d="M88.6932 46.8621C89.0263 46.8621 89.2621 46.5291 89.1672 46.1978C88.7632 44.7877 87.069 41.3747 83.9693 40.4838C79.312 39.1453 76.8761 41.3185 76.3985 42.2946C75.9594 43.1919 75.1577 45.297 76.5598 46.8621H88.6932Z" fill="white"/>
</mask>
<g mask="url(#mask0_12_622)">
<path d="M74.2207 45.9749H89.8715V47.2791H74.2207V45.9749Z" fill="#9092F2"/>
</g>
<path d="M86.9453 45.014H84.4239" stroke="#34394A" stroke-width="0.19947" stroke-miterlimit="10" stroke-linecap="round" stroke-linejoin="round"/>
<path d="M86.4227 44.4701H84.4239" stroke="#34394A" stroke-width="0.19947" stroke-miterlimit="10" stroke-linecap="round" stroke-linejoin="round"/>
<path d="M85.6846 43.9261H84.4239" stroke="#34394A" stroke-width="0.19947" stroke-miterlimit="10" stroke-linecap="round" stroke-linejoin="round"/>
<path d="M70.0317 21.7133C70.0317 21.7133 68.9839 22.3708 69.2676 23.3867C69.5513 24.4026 70.2787 26.2734 70.9931 25.9672C71.7075 25.661 72.1667 25.2528 72.1667 25.2528L72.6003 23.6983L70.0317 21.7133Z" fill="#EACBB5"/>
<path d="M71.5105 25.4513L72.9102 27.0069L73.9164 25.0336L72.1791 23.6827L71.5105 25.4513Z" fill="#EACBB5"/>
<path d="M71.6602 25.6163C71.6602 25.6163 72.1188 25.2065 72.2465 25.0332L72.147 26.1528L71.6602 25.6163Z" fill="#E0AD95"/>
<path d="M71.9267 23.4759L71.5217 23.7489L71.4934 23.396C71.4934 23.396 69.7884 23.3362 70.027 21.9918C69.9739 22.2911 71.4405 21.0215 72.205 21.3037C72.7143 21.4917 73.3985 22.1301 73.472 22.668C73.5292 23.0867 73.2706 23.5849 73.0303 24.3447L71.9267 23.4759Z" fill="#34394A"/>
<path d="M69.7541 24.194L69.5756 25.0076C69.5601 25.0781 69.6293 25.1374 69.6966 25.1115L70.1245 24.9466L69.7541 24.194Z" fill="#EACBB5"/>
<path d="M70.1125 24.1631C70.1501 24.23 70.1281 24.3138 70.0634 24.3503C69.9987 24.3868 69.9158 24.3622 69.8782 24.2953C69.8406 24.2284 69.8626 24.1446 69.9273 24.1081C69.992 24.0716 70.0749 24.0962 70.1125 24.1631Z" fill="#34394A"/>
<path d="M69.9146 23.2746C69.9146 23.2746 70.3225 23.2118 70.343 23.4408C70.343 23.4408 70.3538 23.596 69.9972 23.6413C69.6407 23.6866 69.4983 23.6668 69.4551 23.5223C69.4119 23.3779 69.7218 23.2838 69.9146 23.2746Z" fill="#34394A"/>
<path d="M71.4375 24.1808L69.3717 24.8986L69.9787 25.6411C70.3288 26.0693 70.951 26.1473 71.3983 25.8221C71.4814 25.7617 71.5689 25.6934 71.6601 25.6164L71.4375 24.1808Z" fill="white"/>
<path d="M71.7754 23.3677L71.2937 24.4518L72.664 23.8624" stroke="white" stroke-width="0.09808" stroke-miterlimit="10"/>
<path d="M73.6191 23.6022C73.6191 23.6022 72.5236 24.4821 71.6881 23.9976L70.9084 22.9837L68.5565 23.5884C68.5565 23.5884 68.6169 23.4873 68.7597 22.8268C68.9025 22.1663 69.1847 20.867 71.4211 20.707C73.6369 20.5484 73.7636 23.1235 73.6191 23.6022Z" fill="#9B77E7"/>
<path d="M70.9084 22.9837L68.675 23.1946L67.6758 23.7337C67.558 23.7973 67.6303 23.9673 67.7588 23.9287L70.9084 22.9837Z" fill="#5B61C7"/>
<path d="M73.9381 25.087L73.9105 25.1228C73.8817 25.1603 73.8406 25.2145 73.7915 25.2812C73.6931 25.4146 73.5627 25.5978 73.4342 25.7968C73.3055 25.996 73.1795 26.2101 73.0893 26.4057C72.9978 26.6039 72.9479 26.7735 72.9606 26.8878L72.9606 26.8878C73.2446 29.4557 73.9452 31.8089 74.5751 33.5206C74.89 34.3763 75.1871 35.0713 75.4054 35.5523C75.5145 35.7928 75.604 35.9798 75.6661 36.1065C75.6972 36.1699 75.7214 36.2182 75.7378 36.2507L75.7446 36.2639C77.2114 35.8688 78.1707 35.1748 78.764 34.5787C79.0633 34.2779 79.2696 34.0018 79.4009 33.8013C79.4665 33.7011 79.5134 33.6199 79.5437 33.5639C79.5589 33.5359 79.5699 33.5142 79.5771 33.4997L79.5785 33.4969L79.5637 33.4596L79.4985 33.2956C79.4419 33.1537 79.36 32.9496 79.2589 32.7008C79.0567 32.2031 78.7777 31.5267 78.4707 30.8116C78.1636 30.0963 77.8286 29.3427 77.5143 28.6905C77.1995 28.0373 76.9071 27.4892 76.6851 27.1827C75.9693 26.1944 75.2726 25.6696 74.7572 25.3919C74.4994 25.253 74.2866 25.1757 74.139 25.1333C74.0652 25.112 74.0076 25.0995 73.9689 25.0923C73.9568 25.0901 73.9465 25.0883 73.9381 25.087Z" fill="#E97083" stroke="#E97083" stroke-width="0.1"/>
<path d="M72.5147 30.1862L71.9748 31.8928C71.7891 32.5884 71.6291 33.0444 72.3038 33.2957C73.0535 33.5749 73.8841 33.1689 74.1243 32.4059L74.6313 30.8533L72.5147 30.1862Z" fill="#EACBB5"/>
<path d="M75.1251 30.9565L75.8215 28.4557L75.8215 28.4557C76.0366 27.6837 75.642 26.8726 74.9018 26.5652C74.4604 26.3819 73.9737 26.4974 73.5904 26.6653C73.3997 26.7488 73.2371 26.8442 73.1221 26.9188C73.0647 26.956 73.0193 26.988 72.9883 27.0106C72.9735 27.0214 72.962 27.03 72.9541 27.036L72.1497 30.0187L75.1251 30.9565Z" fill="#E97083" stroke="#E97083" stroke-width="0.1"/>
<path d="M74.6314 30.8534L75.1594 31.0198L75.8697 28.4692" stroke="#E97083" stroke-width="0.09477" stroke-miterlimit="10" stroke-linecap="round" stroke-linejoin="round"/>
<path d="M72.4233 31.2538L66.1932 31.8821L66.4454 32.8558L72.7494 33.3841C73.739 33.2442 74.2785 32.4678 73.9536 31.5227C73.7029 30.7932 73.1853 31.1344 72.4233 31.2538Z" fill="#EACBB5"/>
<path d="M66.7045 31.8698L64.7586 30.965C64.5678 30.8763 64.3413 30.9227 64.2009 31.0794L63.6256 31.8067C63.4866 31.9617 63.45 32.1832 63.5316 32.3748L63.6216 32.586C63.6624 32.6817 63.7301 32.7635 63.8166 32.8213L64.0841 33.0003C64.2295 33.0976 64.423 33.0806 64.5492 32.9594L64.7433 32.773L65.5847 33.0691C65.5847 33.0691 66.2141 33.3762 66.9429 32.8569L66.7045 31.8698Z" fill="white"/>
<path d="M65.1206 32.0416L65.6285 32.35C65.9308 32.6128 65.9396 33.0794 65.6474 33.3534C65.373 33.6107 64.9413 33.5944 64.687 33.3173L64.2154 32.9717C63.9713 32.7057 63.9908 32.2916 64.2588 32.0498C64.5027 31.8294 64.8726 31.826 65.1206 32.0416Z" fill="#34394A"/>
<path d="M66.5329 31.8455L67.4618 31.7544L67.1977 32.9189L66.6164 32.863L66.5329 31.8455Z" fill="white"/>
<path d="M79.5731 33.6262C79.5731 33.6262 81.9991 37.595 76.7729 38.1001L68.2385 38.1106C67.395 38.1075 66.8546 37.0141 66.9498 36.176C67.0268 35.4982 67.5761 34.9715 68.2566 34.9231L79.5731 33.6262Z" fill="#34394A"/>
<path d="M70.4361 42.4857L70.733 45.1052L68.7137 45.009L68.3359 42.0845L70.4361 42.4857Z" fill="#EACBB5"/>
<path d="M68.6616 44.6056L65.8832 46.0441C65.6767 46.1476 65.5683 46.3793 65.6209 46.6041L71.1508 46.5236L70.7152 44.5837L68.6616 44.6056Z" fill="white"/>
<path d="M71.1508 46.5237L71.1631 46.9135L66.0724 46.9383C65.8646 46.9388 65.6811 46.803 65.6208 46.6041L71.1508 46.5237Z" fill="black"/>
<path d="M70.3806 45.5228C70.3762 45.794 70.1527 46.0103 69.8815 46.0059C69.6103 46.0015 69.394 45.778 69.3984 45.5068C69.4028 45.2356 69.6263 45.0193 69.8975 45.0237C70.1687 45.0281 70.385 45.2516 70.3806 45.5228Z" stroke="black" stroke-width="0.0808" stroke-miterlimit="10"/>
<path d="M67.8311 44.9901L68.2662 45.3757" stroke="black" stroke-width="0.16159" stroke-miterlimit="10" stroke-linecap="round" stroke-linejoin="round"/>
<path d="M67.4239 45.1871L67.8617 45.575" stroke="black" stroke-width="0.16159" stroke-miterlimit="10" stroke-linecap="round" stroke-linejoin="round"/>
<path d="M66.9943 45.408L67.4515 45.8132" stroke="black" stroke-width="0.16159" stroke-miterlimit="10" stroke-linecap="round" stroke-linejoin="round"/>
<path d="M70.1411 35.5679L70.9751 43.4734L68.0058 43.4758L66.9393 36.3747L70.1411 35.5679Z" fill="#34394A"/>
<path d="M157.307 29.1905C157.022 29.6486 156.723 30.1181 156.409 30.5991C156.119 31.0847 155.818 31.5679 155.504 32.0489C155.214 32.5345 154.929 32.9925 154.65 33.4231C154.394 33.8583 154.161 34.2408 153.95 34.5706C153.198 35.7936 152.367 37.1152 151.455 38.5352C150.566 39.9598 149.715 41.3203 148.9 42.6167C148.086 43.913 147.414 44.9803 146.884 45.8186C146.741 46.0476 146.599 46.2767 146.457 46.5057C146.309 46.7622 146.152 47.0027 145.986 47.2272C145.844 47.4562 145.699 47.699 145.551 47.9555C145.369 48.2624 145.19 48.5556 145.013 48.835C144.831 49.1419 144.652 49.4351 144.475 49.7145C144.294 50.0214 144.102 50.3123 143.902 50.5871C143.72 50.894 143.541 51.1872 143.364 51.4666C143.056 51.9201 142.718 52.2111 142.35 52.3395C142 52.4999 141.665 52.5207 141.344 52.4017C141.048 52.2874 140.796 52.0677 140.589 51.7427C140.4 51.4497 140.31 51.0902 140.319 50.6643C140.328 50.2384 140.474 49.7965 140.759 49.3384C140.936 49.059 141.115 48.7658 141.297 48.4589C141.502 48.1566 141.708 47.8542 141.914 47.5519C142.119 47.2496 142.313 46.9449 142.495 46.638C142.7 46.3357 142.892 46.0448 143.068 45.7654C143.216 45.5089 143.346 45.2776 143.46 45.0714C143.597 44.8699 143.722 44.666 143.835 44.4599C143.972 44.2584 144.115 44.0293 144.262 43.7728C144.621 43.1865 145.08 42.4627 145.639 41.6015C146.203 40.7129 146.806 39.7463 147.45 38.7019C148.116 37.6621 148.786 36.6085 149.458 35.5412C150.13 34.4739 150.754 33.4684 151.329 32.5248C151.608 32.0942 151.93 31.572 152.294 30.9582C152.681 30.349 153.086 29.7145 153.507 29.0549C153.935 28.3678 154.327 27.7311 154.686 27.1448C155.044 26.5584 155.441 26.2217 155.874 26.1345C156.332 26.0518 156.731 26.1432 157.072 26.4087C157.437 26.6787 157.657 27.0632 157.732 27.5624C157.831 28.0661 157.689 28.6088 157.307 29.1905Z" fill="#EBEBEB"/>
<path fill-rule="evenodd" clip-rule="evenodd" d="M146.437 43.3873C146.777 43.7025 147.258 43.8148 147.702 43.6823C148.147 43.5498 148.488 43.1921 148.6 42.7422L149.282 40.0035C150.676 34.4182 151.992 29.1404 152.369 27.0072C152.372 26.9886 152.376 26.9697 152.379 26.951C152.634 25.4033 152.535 23.8517 152.084 22.3394C150.462 16.8983 144.716 13.7914 139.275 15.4136C133.834 17.0357 130.727 22.782 132.349 28.2231C132.8 29.7364 133.567 31.0893 134.636 32.2518C136.094 33.8113 140.111 37.5305 144.365 41.4682L146.437 43.3873ZM137.818 26.6063C138.269 29.3469 140.866 31.2095 143.606 30.7585C146.347 30.3075 148.21 27.711 147.759 24.9705C147.308 22.2299 144.711 20.3669 141.97 20.8179C139.23 21.2689 137.367 23.8657 137.818 26.6063Z" fill="#7A3DF7"/>
</svg>
